<?xml version="1.0" encoding="UTF-8"?>
<svg width="100px" height="33px" viewBox="0 0 100 33" version="1.1" xmlns="http://www.w3.org/2000/svg" xmlns:xlink="http://www.w3.org/1999/xlink">
    <!-- Generator: Sketch 52.2 (67145) - http://www.bohemiancoding.com/sketch -->
    <title>logo_google</title>
    <desc>Created with Sketch.</desc>
    <defs>
        <polygon id="path-1" points="0 0.632827957 24.6580593 0.632827957 24.6580593 25.5661446 0 25.5661446"></polygon>
        <polygon id="path-3" points="0.546425276 0.471062723 15.4639175 0.471062723 15.4639175 17.2847898 0.546425276 17.2847898"></polygon>
    </defs>
    <g id="Page-1" stroke="none" stroke-width="1" fill="none" fill-rule="evenodd">
        <g id="landing_06" transform="translate(-60.000000, -2628.000000)">
            <g id="footer" transform="translate(0.000000, 2598.000000)">
                <g id="logo_google" transform="translate(60.000000, 30.000000)">
                    <g id="Group-3">
                        <mask id="mask-2" fill="white">
                            <use xlink:href="#path-1"></use>
                        </mask>
                        <g id="Clip-2"></g>
                        <path d="M18.6677585,12.0360811 C20.5149455,12.0360811 22.3614256,12.0402618 24.2086127,12.0305068 C24.4277585,12.02981 24.5033991,12.0904307 24.5330898,12.3036486 C24.6985096,13.4888894 24.6978027,14.6741301 24.5422798,15.8579772 C24.3316171,17.4585051 23.8904978,18.995625 22.9983623,20.3606377 C21.2854904,22.9798733 18.8706451,24.6368412 15.7658439,25.2618623 C13.3411016,25.7496157 10.9227216,25.6862078 8.59482769,24.813826 C4.03518115,23.1052956 1.13468041,19.9181757 0.219923417,15.1639738 C-0.431151694,11.7796622 0.376860088,8.64410473 2.44814138,5.86669764 C4.48761119,3.13249155 7.2262268,1.41490287 10.6194521,0.842837838 C14.6616318,0.160679899 18.2669337,1.13061233 21.3229573,3.8954772 C21.4756524,4.03344172 21.4862563,4.10730152 21.3335611,4.25432432 C20.637243,4.92463682 19.9472872,5.60191723 19.2686421,6.2889527 C19.1152401,6.44433699 19.0304094,6.44015625 18.8720589,6.29940456 C17.6328247,5.19986909 16.199894,4.48078125 14.551352,4.19161318 C10.1846951,3.42653716 6.0308218,5.64790541 4.45862739,9.65375422 C3.15789102,12.9683868 3.62516642,16.108125 5.88307511,18.9043454 C7.38952577,20.7703505 9.40778792,21.8197171 11.8176848,22.0733488 C13.8783623,22.2900507 15.8428984,21.9785853 17.6441355,20.8992568 C19.6397761,19.7028674 20.7489367,17.9490456 21.0649308,15.682386 C21.0939146,15.4747424 21.0571546,15.4273606 20.8401296,15.4280574 C18.2782445,15.4371157 15.7156524,15.4350253 13.1530604,15.4357221 C12.8370663,15.4357221 12.8370663,15.4357221 12.8370663,15.1158953 C12.8363594,14.1891639 12.8476701,13.2624324 12.8299971,12.3363978 C12.8250486,12.0764949 12.9084654,12.0291132 13.1523535,12.0305068 C14.9903505,12.0409586 16.8290545,12.0360811 18.6677585,12.0360811" id="Fill-1" fill="#5F6368" mask="url(#mask-2)"></path>
                    </g>
                    <path d="M74.2051239,17.1604862 C74.2121288,16.7230595 74.0748318,15.9890362 73.7925322,15.2834635 C72.5834773,12.254195 68.9724241,11.5486222 66.7490521,13.9057473 C64.9641901,15.7977065 64.9648906,19.1498884 66.7504531,21.0411363 C68.5290106,22.9252716 71.4059447,22.8769057 73.0437027,20.9223554 C73.8695866,19.9358338 74.1995199,18.7650951 74.2051239,17.1604862 M77.3104195,17.7117149 C77.3104195,20.1221847 77.3244294,22.5333657 77.3048155,24.9438355 C77.2936076,26.3187066 77.0435308,27.653747 76.4726271,28.9126823 C75.6152209,30.8025077 74.1960175,32.0493514 72.2304277,32.6155167 C70.100922,33.2286253 68.0057406,33.1489638 66.0156335,32.0820695 C64.4633359,31.249892 63.340442,29.988823 62.5958155,28.3756788 C62.522964,28.2177785 62.5131571,28.1452296 62.7029913,28.0684133 C63.5898183,27.7092255 64.4710414,27.3365238 65.3480615,26.9538644 C65.5301903,26.8742029 65.6002398,26.8898507 65.6934057,27.0797579 C66.3343589,28.3856365 67.2891339,29.352954 68.7342557,29.6459943 C70.1604641,29.9354782 71.5159225,29.7285008 72.6388164,28.6886345 C73.4275741,27.9588788 73.7540049,26.9951176 73.895505,25.9502725 C73.9830669,25.3001782 73.9410372,24.6465277 73.9501436,23.9942996 C73.9508441,23.9324198 73.9823664,23.849202 73.9102154,23.8122164 C73.8212525,23.7666955 73.7792228,23.8527583 73.7308886,23.9053918 C72.6100961,25.1280526 71.1852887,25.635183 69.583256,25.6415844 C67.8782505,25.6479858 66.3504702,25.0675953 65.0104228,24.0042573 C63.2977118,22.6457453 62.2546743,20.8661656 61.9429539,18.6832999 C61.4392978,15.1589925 63.1562117,11.8722468 66.0373489,10.2370535 C67.2365968,9.55637499 68.5220056,9.21781388 69.8984789,9.29107395 C71.3856304,9.36931286 72.6920541,9.88426717 73.7364925,10.9981048 C73.7806237,11.0457594 73.8198515,11.1190195 73.8948045,11.093414 C73.9928738,11.0606959 73.9480421,10.9653867 73.9494431,10.898528 C73.9543466,10.6054877 73.9613515,10.3117361 73.9480421,10.0194071 C73.9389357,9.83661256 73.9886708,9.77402143 74.1792056,9.77615521 C75.1521935,9.78540163 76.1251815,9.78469037 77.0974689,9.77686648 C77.2704913,9.77544395 77.3216274,9.82665488 77.3195259,10.0023368 C77.31112,10.7555642 77.3160235,11.5087915 77.3160235,12.2620189 L77.3160235,17.7117149 C77.313922,17.7117149 77.312521,17.7117149 77.3104195,17.7117149" id="Fill-4" fill="#5F6368"></path>
                    <path d="M47.9405332,17.5194155 C47.9348202,18.272836 48.0733601,18.9961485 48.3711494,19.6872021 C49.7422654,22.862178 53.8299052,23.5138044 56.0258333,20.9080159 C57.5426305,19.1079787 57.6204699,16.2340843 56.2036499,14.3516082 C54.699707,12.3537175 51.9231969,11.9214505 49.9186538,13.3996172 C48.5425389,14.4146919 47.9669558,15.8405278 47.9405332,17.5194155 M52.5837607,9.2812527 C57.2605519,9.28555387 60.8283102,12.8612549 60.8247396,17.542355 C60.8218831,22.178293 57.202708,25.789837 52.5687641,25.7812347 C47.9148248,25.7719155 44.3177875,22.1582209 44.3299275,17.5022108 C44.3413535,12.8390322 47.9176813,9.2776684 52.5837607,9.2812527" id="Fill-6" fill="#5F6368"></path>
                    <path d="M39.6870844,17.5319648 C39.691369,16.9261907 39.5985369,16.338339 39.4135867,15.7641083 C38.3124552,12.3481163 34.0607448,11.4075536 31.6692469,14.0521694 C30.0639656,15.8264779 29.9875576,18.855348 31.4992928,20.7845052 C32.9874628,22.683553 35.6781657,23.0950492 37.6383513,21.6928078 C39.0529697,20.6805559 39.6542361,19.2410361 39.6870844,17.5319648 M35.0554765,25.7812448 C30.4181558,25.786263 26.8098433,22.1810115 26.8041306,17.5384168 C26.7984178,12.862845 30.3717397,9.28340165 35.0476214,9.28125097 C39.7249313,9.27910029 43.3018237,12.8556761 43.2989674,17.5312479 C43.296111,22.1752764 39.6970817,25.7769434 35.0554765,25.7812448" id="Fill-8" fill="#5F6368"></path>
                    <g id="Group-12" transform="translate(84.536082, 9.281250)">
                        <mask id="mask-4" fill="white">
                            <use xlink:href="#path-3"></use>
                        </mask>
                        <g id="Clip-11"></g>
                        <path d="M4.10313964,8.13420781 C4.09962512,8.17730547 4.09611059,8.21967266 4.09329897,8.26277031 C4.06799438,8.63092656 4.06799438,8.63092656 4.40257732,8.48629375 C6.53730084,7.56663359 8.67132146,6.64697344 10.806045,5.72731328 C11.4056232,5.46872734 11.4238988,5.44389141 10.9902062,4.91722344 C10.1502343,3.89675859 9.03472352,3.57462187 7.81166823,3.77403984 C5.69240862,4.12028203 4.23598875,5.87778984 4.10313964,8.13420781 M8.66921275,17.2847898 C4.82924086,17.2731023 1.71396439,14.8406414 0.838847235,11.0436648 C0.102905342,7.85005547 0.726382381,4.93110234 3.04737582,2.58264531 C4.70060918,0.909871875 6.75168697,0.270711719 9.03542643,0.524914844 C11.4477976,0.793727344 13.1551546,2.192575 14.4049203,4.28025469 C14.8442362,5.01437578 15.1239925,5.82227422 15.4402999,6.61483281 C15.5035614,6.774075 15.4325679,6.79964141 15.3215089,6.84712187 C13.9866917,7.41980937 12.6532802,7.99761016 11.318463,8.57175859 C9.17530459,9.49361016 7.0321462,10.4154617 4.8868791,11.3300086 C4.71396439,11.4037859 4.69147142,11.461493 4.78074039,11.6397273 C6.28636364,14.6426844 10.2036551,14.6054305 12.0157451,12.3928406 C12.1767104,12.197075 12.3327554,11.9961961 12.4810684,11.7902039 C12.551359,11.6923211 12.6019681,11.6514148 12.7172446,11.7324969 C13.5466729,12.31395 14.3782099,12.8910203 15.2139644,13.4622469 C15.328538,13.5411375 15.3215089,13.5959227 15.2484067,13.6989187 C13.8594658,15.6609578 12.0382381,16.8808406 9.69264292,17.2080906 C9.33064667,17.258493 8.96724461,17.2643367 8.66921275,17.2847898" id="Fill-10" fill="#5F6368" mask="url(#mask-4)"></path>
                    </g>
                    <path d="M80.4173837,13.9278781 C80.4173837,10.0664814 80.4192635,6.2050847 80.4123711,2.34368797 C80.4123711,2.11319878 80.4693896,2.05979275 80.6680145,2.06260359 C81.5377032,2.07454968 82.4080185,2.07173883 83.2777072,2.06400901 C83.4381109,2.06260359 83.5051546,2.08930661 83.5051546,2.30011989 C83.4995154,10.0482109 83.500142,17.7955993 83.5039015,25.5436903 C83.5039015,25.7278006 83.4619208,25.7819093 83.2946248,25.7798012 C82.4098982,25.7706659 81.5251717,25.7692605 80.6404451,25.7812066 C80.4468329,25.7833147 80.4136243,25.7088274 80.4136243,25.5120683 C80.4186369,21.6506716 80.4173837,17.7892749 80.4173837,13.9278781" id="Fill-13" fill="#5F6368"></path>
                </g>
            </g>
        </g>
    </g>
</svg>