<svg id="attribution_A_GwG_Program_rgb" xmlns="http://www.w3.org/2000/svg" viewBox="0 0 361.37 62.92"><defs><style>.cls-1{fill:none;}.cls-2{fill:#5f6368;}</style></defs><title>attribution_A_GwG_Program_rgb</title><rect id="bounding_box_clear_space" data-name="bounding box_clear space" class="cls-1" width="361.37" height="62.92"/><g id="Program"><path class="cls-2" d="M255.28,37v4.62h-2.16V29.13h4.76a4.81,4.81,0,0,1,3.31,1.09,3.65,3.65,0,0,1,1.23,2.88,3.53,3.53,0,0,1-1.2,2.85,5,5,0,0,1-3.36,1Zm0-1.74h2.6a2.56,2.56,0,0,0,1.76-.54,2,2,0,0,0,.61-1.57,2.15,2.15,0,0,0-.62-1.61,2.37,2.37,0,0,0-1.69-.62h-2.66Z"/><path class="cls-2" d="M269.76,36.78h-2.41v4.79h-2.16V29.13h4.38a5.09,5.09,0,0,1,3.32,1,3.42,3.42,0,0,1,1.17,2.8,3.5,3.5,0,0,1-.6,2.09,3.83,3.83,0,0,1-1.68,1.3l2.79,5.18v.11h-2.32ZM267.35,35h2.22a2.48,2.48,0,0,0,1.71-.55,1.92,1.92,0,0,0,.62-1.51,2,2,0,0,0-.57-1.55,2.41,2.41,0,0,0-1.7-.56h-2.28Z"/><path class="cls-2" d="M287,35.67a7.64,7.64,0,0,1-.63,3.21A4.78,4.78,0,0,1,284.58,41a5.3,5.3,0,0,1-5.4,0,4.87,4.87,0,0,1-1.83-2.11,7.41,7.41,0,0,1-.65-3.15V35a7.58,7.58,0,0,1,.65-3.21,4.85,4.85,0,0,1,1.82-2.13,5.31,5.31,0,0,1,5.39,0,4.79,4.79,0,0,1,1.82,2.1A7.55,7.55,0,0,1,287,35ZM284.86,35a5.44,5.44,0,0,0-.78-3.17,2.76,2.76,0,0,0-4.41,0,5.33,5.33,0,0,0-.81,3.11v.72a5.39,5.39,0,0,0,.8,3.17A2.57,2.57,0,0,0,281.87,40a2.54,2.54,0,0,0,2.21-1.09,5.51,5.51,0,0,0,.77-3.2Z"/><path class="cls-2" d="M299.49,40a4.14,4.14,0,0,1-1.87,1.33,7.63,7.63,0,0,1-2.72.45,5.36,5.36,0,0,1-2.77-.71,4.74,4.74,0,0,1-1.86-2,7.11,7.11,0,0,1-.68-3.08v-1a6.58,6.58,0,0,1,1.35-4.41A4.68,4.68,0,0,1,294.71,29a5,5,0,0,1,3.3,1,4.43,4.43,0,0,1,1.47,3h-2.12a2.38,2.38,0,0,0-2.61-2.25,2.56,2.56,0,0,0-2.21,1,5.33,5.33,0,0,0-.78,3.07v1a5.07,5.07,0,0,0,.85,3.13A2.81,2.81,0,0,0,295,40a3.12,3.12,0,0,0,2.36-.75V36.83h-2.56V35.19h4.72Z"/><path class="cls-2" d="M307.49,36.78h-2.41v4.79h-2.16V29.13h4.38a5.09,5.09,0,0,1,3.33,1,3.42,3.42,0,0,1,1.17,2.8,3.51,3.51,0,0,1-.6,2.09,3.83,3.83,0,0,1-1.68,1.3l2.79,5.18v.11H310ZM305.08,35h2.22a2.47,2.47,0,0,0,1.71-.55,1.92,1.92,0,0,0,.62-1.51,2,2,0,0,0-.57-1.55,2.41,2.41,0,0,0-1.7-.56h-2.28Z"/><path class="cls-2" d="M321.89,38.67h-4.82l-1,2.9h-2.25l4.7-12.44h1.94l4.71,12.44h-2.26Zm-4.21-1.74h3.61l-1.8-5.16Z"/><path class="cls-2" d="M330.43,29.13,334,38.66l3.58-9.54h2.79V41.57h-2.15v-4.1l.21-5.49-3.68,9.59h-1.55L329.56,32l.21,5.48v4.1h-2.15V29.13Z"/></g><g id="A"><path class="cls-2" d="M29,38.67H24.16l-1,2.9H20.9l4.7-12.44h1.94l4.71,12.44H30Zm-4.21-1.74h3.61l-1.8-5.16Z"/></g><g id="GoogleLogo_OneColor"><g id="_75x24px_minSizeAllowed" data-name="75x24px_minSizeAllowed"><path class="cls-2" d="M169.74,41.95a10.49,10.49,0,1,1,0-21,10,10,0,0,1,7.19,2.89l-2,2a7.31,7.31,0,0,0-5.17-2,7.62,7.62,0,0,0,0,15.24A7,7,0,0,0,175,37a6,6,0,0,0,1.56-3.61h-6.86V30.52h9.64a9.28,9.28,0,0,1,.15,1.79,9.47,9.47,0,0,1-2.48,6.7A9.59,9.59,0,0,1,169.74,41.95Z"/><path class="cls-2" d="M194.45,35.2a6.66,6.66,0,1,1-6.66-6.75A6.61,6.61,0,0,1,194.45,35.2Zm-2.91,0a3.76,3.76,0,1,0-7.48,0,3.76,3.76,0,1,0,7.48,0Z"/><path class="cls-2" d="M209.37,35.2a6.66,6.66,0,1,1-6.66-6.75A6.61,6.61,0,0,1,209.37,35.2Zm-2.91,0a3.76,3.76,0,1,0-7.48,0,3.76,3.76,0,1,0,7.48,0Z"/><path class="cls-2" d="M223.92,28.85V41c0,5-2.94,7-6.42,7a6.44,6.44,0,0,1-6-4l2.58-1.07a3.74,3.74,0,0,0,3.4,2.4c2.23,0,3.61-1.38,3.61-4v-1H221a4.6,4.6,0,0,1-3.56,1.53,6.76,6.76,0,0,1,0-13.51A4.68,4.68,0,0,1,221,30h.1v-1.1Zm-2.61,6.37c0-2.38-1.59-4.12-3.61-4.12a3.91,3.91,0,0,0-3.76,4.12,3.88,3.88,0,0,0,3.76,4.07A3.77,3.77,0,0,0,221.31,35.22Z"/><path class="cls-2" d="M229.12,21.69V41.54h-3V21.69Z"/><path class="cls-2" d="M240.78,37.42l2.3,1.53a6.72,6.72,0,0,1-5.63,3,6.53,6.53,0,0,1-6.61-6.75c0-4,2.8-6.75,6.27-6.75a6.27,6.27,0,0,1,5.78,4.3l.31.77-9,3.73a3.44,3.44,0,0,0,3.27,2A3.86,3.86,0,0,0,240.78,37.42ZM233.7,35l6-2.51a2.62,2.62,0,0,0-2.51-1.43A3.7,3.7,0,0,0,233.7,35Z"/></g><g id="Grow_with" data-name="Grow with"><path class="cls-2" d="M58.81,33a8.38,8.38,0,0,1-2.31,6.2A8.94,8.94,0,0,1,49.68,42,9.57,9.57,0,0,1,40,32.29a9.57,9.57,0,0,1,9.65-9.7,10.32,10.32,0,0,1,3.86.73,7.73,7.73,0,0,1,3,2l-1.71,1.71a5.76,5.76,0,0,0-2.22-1.62,7.33,7.33,0,0,0-2.92-.58A7,7,0,0,0,44.55,27a7.31,7.31,0,0,0-2.08,5.32,7.31,7.31,0,0,0,2.08,5.32,7,7,0,0,0,5.14,2.1,6.91,6.91,0,0,0,4.62-1.56,6.2,6.2,0,0,0,2.13-4.28H49.68V31.64h9A8,8,0,0,1,58.81,33Z"/><path class="cls-2" d="M62.91,41.57H60.53V28.86h2.28v2.07h.1a3.45,3.45,0,0,1,1.49-1.72,4.14,4.14,0,0,1,2.22-.71,4.47,4.47,0,0,1,1.76.31l-.73,2.31a4,4,0,0,0-1.4-.18A3.09,3.09,0,0,0,63.91,32a3.64,3.64,0,0,0-1,2.54Z"/><path class="cls-2" d="M68.18,35.22A6.72,6.72,0,0,1,70,30.37a6.28,6.28,0,0,1,4.69-1.92,6.19,6.19,0,0,1,4.67,1.92,6.67,6.67,0,0,1,1.87,4.85,6.62,6.62,0,0,1-1.87,4.85A6.19,6.19,0,0,1,74.71,42,6.28,6.28,0,0,1,70,40.07,6.72,6.72,0,0,1,68.18,35.22Zm2.39,0a4.65,4.65,0,0,0,1.19,3.32,4.07,4.07,0,0,0,5.91,0,4.65,4.65,0,0,0,1.19-3.32,4.62,4.62,0,0,0-1.19-3.29,4,4,0,0,0-5.91,0A4.62,4.62,0,0,0,70.56,35.22Z"/><path class="cls-2" d="M100.91,28.86l-4.1,12.71H94.37l-3.16-9.75-3.14,9.75H85.66l-4.1-12.71h2.49l2.83,9.6h0L90,28.86h2.46l3.14,9.6h0l2.8-9.6Z"/><path class="cls-2" d="M125.65,28.86l-4.1,12.71h-2.44L116,31.82l-3.14,9.75H110.4l-4.1-12.71h2.49l2.83,9.6h0l3.14-9.6h2.46l3.14,9.6h0l2.8-9.6Z"/><path class="cls-2" d="M130,24.48a1.68,1.68,0,1,1-.49-1.19A1.63,1.63,0,0,1,130,24.48Zm-.49,4.38V41.57h-2.39V28.86Z"/><path class="cls-2" d="M137.3,41.78a3.63,3.63,0,0,1-2.58-1,3.56,3.56,0,0,1-1.05-2.67V31h-2.23V28.86h2.23V25h2.39v3.89h3.11V31h-3.11v6.33a2.32,2.32,0,0,0,.49,1.72,1.6,1.6,0,0,0,1.12.45,2.39,2.39,0,0,0,.56-.06,2.87,2.87,0,0,0,.51-.17l.75,2.13A6.41,6.41,0,0,1,137.3,41.78Z"/><path class="cls-2" d="M141.32,23h2.39v5.86l-.1,1.76h.1a4.24,4.24,0,0,1,1.67-1.56,4.8,4.8,0,0,1,2.35-.62,4.7,4.7,0,0,1,3.59,1.34,5.33,5.33,0,0,1,1.26,3.8v8h-2.39V34q0-3.42-3-3.42a3.07,3.07,0,0,0-2.45,1.21,4.28,4.28,0,0,0-1,2.81v6.93h-2.39Z"/></g></g></svg>